<?xml version="1.0" encoding="UTF-8"?>
<svg version="1.1" xmlns="http://www.w3.org/2000/svg" width="500" height="500">
<path d="M0 0 C3.3125 -0.3125 3.3125 -0.3125 7 0 C10.86239903 4.39035285 10.95983688 10.11297949 11.625 15.6875 C11.86426369 17.58761004 12.10631351 19.48737197 12.3515625 21.38671875 C12.45291504 22.22420654 12.55426758 23.06169434 12.65869141 23.92456055 C12.90370311 26.05419465 12.90370311 26.05419465 14 28 C14.45126974 30.91495856 14.86157673 33.82651818 15.25 36.75 C17.57119448 53.57270819 20.14957447 70.43533262 23.625 87.0625 C24.97795636 93.54762041 25.90237729 100.05918489 26.80737305 106.61816406 C28.1674837 116.39838172 29.81714748 126.12523614 31.47070312 135.859375 C32.02608769 139.15479338 32.56919464 142.45205677 33.109375 145.75 C33.38019897 147.39778442 33.38019897 147.39778442 33.65649414 149.07885742 C34.00371748 151.19332784 34.34932512 153.30806437 34.69311523 155.4230957 C34.84981689 156.37273193 35.00651855 157.32236816 35.16796875 158.30078125 C35.30485107 159.13778564 35.4417334 159.97479004 35.58276367 160.8371582 C35.98373898 163.16922439 35.98373898 163.16922439 37 166 C40.28976808 167.09658936 41.71303767 166.79953138 45 166 C45 165.34 45 164.68 45 164 C50.41176471 160 50.41176471 160 53 160 C53 159.34 53 158.68 53 158 C54.82910156 156.53881836 54.82910156 156.53881836 57.390625 154.83984375 C58.78909668 153.90217163 58.78909668 153.90217163 60.21582031 152.94555664 C61.21709961 152.28289795 62.21837891 151.62023926 63.25 150.9375 C70.66140864 145.97375963 77.93568857 140.94786287 84.953125 135.44140625 C87 134 87 134 89 134 C88.505 133.54625 88.01 133.0925 87.5 132.625 C86 131 86 131 86 129 C85.28457031 128.72414062 84.56914062 128.44828125 83.83203125 128.1640625 C81.04261145 127.01751478 78.37709642 125.73772885 75.6875 124.375 C74.80449219 123.92898437 73.92148437 123.48296875 73.01171875 123.0234375 C72.01591797 122.51683594 72.01591797 122.51683594 71 122 C71 121.34 71 120.68 71 120 C69.92685547 119.83177734 69.92685547 119.83177734 68.83203125 119.66015625 C65.80884002 118.95543995 63.43677312 117.86712202 60.6875 116.4375 C59.36298828 115.75494141 59.36298828 115.75494141 58.01171875 115.05859375 C57.01591797 114.53458984 57.01591797 114.53458984 56 114 C55.81682993 107.08486714 56.2950123 100.51530685 57.375 93.6875 C57.50132812 92.82060547 57.62765625 91.95371094 57.7578125 91.06054688 C59.17674823 81.80199121 59.17674823 81.80199121 61 79 C66.13291876 77.06563596 70.10219254 78.77401699 74.875 80.875 C75.61024902 81.18800049 76.34549805 81.50100098 77.10302734 81.82348633 C84.41705452 85.0230805 91.32845417 88.88411986 98.19628906 92.93896484 C101.11411747 94.65538096 104.05827017 96.32495332 107 98 C107 98.66 107 99.32 107 100 C107.61875 100.144375 108.2375 100.28875 108.875 100.4375 C111 101 111 101 113 102 C113 102.66 113 103.32 113 104 C114.65 104.66 116.3 105.32 118 106 C118 106.66 118 107.32 118 108 C120.26752627 108.81975201 120.26752627 108.81975201 123 109 C125.47272723 107.60933161 125.47272723 107.60933161 127.6875 105.5625 C131.83561644 102 131.83561644 102 134 102 C134 101.34 134 100.68 134 100 C135.88367591 98.57191082 137.8338427 97.23078609 139.8125 95.9375 C140.89144531 95.22464844 141.97039062 94.51179688 143.08203125 93.77734375 C146 92 146 92 149 91 C149 90.34 149 89.68 149 89 C150.98 88.34 152.96 87.68 155 87 C155 86.34 155 85.68 155 85 C156.8436029 83.61509256 158.75222264 82.31611151 160.6875 81.0625 C161.74324219 80.37285156 162.79898437 79.68320313 163.88671875 78.97265625 C165.84393775 77.73251121 167.82352591 76.52633061 169.83203125 75.37109375 C172.1237788 74.18319018 172.1237788 74.18319018 173 72 C175.8125 71.125 175.8125 71.125 179 71 C181.4375 72.625 181.4375 72.625 183 75 C182.68329195 79.36762495 180.87837367 81.89857855 178.25 85.3125 C175.69376269 88.69332999 173.29046991 92.04380513 171.125 95.6875 C170.42375 96.780625 169.7225 97.87375 169 99 C168.34 99 167.68 99 167 99 C166.34 100.98 165.68 102.96 165 105 C164.34 105 163.68 105 163 105 C162.73445313 105.56589844 162.46890625 106.13179688 162.1953125 106.71484375 C160.91963761 109.15363398 159.46587784 111.31677244 157.875 113.5625 C157.26269531 114.43261719 156.65039062 115.30273438 156.01953125 116.19921875 C154.62342485 118.13540499 153.20237281 120.05375878 151.76171875 121.95703125 C151.03597656 122.91996094 150.31023437 123.88289063 149.5625 124.875 C148.54349609 126.20144531 148.54349609 126.20144531 147.50390625 127.5546875 C145.65075357 130.08940493 145.65075357 130.08940493 146 134 C146 134.66 146 135.32 146 136 C146.66 136 147.32 136 148 136 C149.5078125 137.8984375 149.5078125 137.8984375 151.125 140.375 C151.66382813 141.18710938 152.20265625 141.99921875 152.7578125 142.8359375 C154 145 154 145 154 147 C154.66 147 155.32 147 156 147 C178.04099003 184.51657877 178.04099003 184.51657877 177 196 C173.20370261 199.79629739 166.88823264 199.75303386 161.75 200.6875 C160.52152344 200.92533203 159.29304688 201.16316406 158.02734375 201.40820312 C156.83753906 201.62798828 155.64773438 201.84777344 154.421875 202.07421875 C153.33487305 202.27619873 152.24787109 202.47817871 151.12792969 202.6862793 C147.81466666 203.0185883 145.22480544 202.80851388 142 202 C139.93701866 199.93701866 139.47283084 198.87734763 138.5625 196.1875 C137.64625488 193.60237983 136.76236959 191.61275044 135.3125 189.25 C134 187 134 187 134 183 C133.34 183 132.68 183 132 183 C131.16180842 181.37750059 130.3295884 179.75191503 129.5 178.125 C128.80390625 176.76761719 128.80390625 176.76761719 128.09375 175.3828125 C127 173 127 173 127 171 C126.34 171 125.68 171 125 171 C125 170.01 125 169.02 125 168 C122.69 168 120.38 168 118 168 C117.74476563 168.73089844 117.48953125 169.46179688 117.2265625 170.21484375 C115.93264816 173.15293586 114.44800482 175.12197042 112.375 177.5625 C106.98305827 184.12106186 102.40145521 191.17546023 97.890625 198.359375 C97.26671875 199.23078125 96.6428125 200.1021875 96 201 C95.34 201 94.68 201 94 201 C93.71125 201.763125 93.4225 202.52625 93.125 203.3125 C92 206 92 206 90 209 C89.34 209 88.68 209 88 209 C86.98459888 213.10223585 86.98459888 213.10223585 88 217 C90.96477863 217.73655252 93.87189828 218.3393057 96.875 218.875 C98.26078247 219.13108032 98.26078247 219.13108032 99.67456055 219.39233398 C108.52603622 220.99058821 117.420124 222.28637298 126.32202148 223.56762695 C133.6422359 224.62680852 140.88248127 225.86499633 148.140625 227.2890625 C152.64271163 228.11839425 157.15713111 228.78438345 161.6875 229.4375 C168.64599216 230.44292729 175.53996851 231.63887341 182.4375 233 C190.44587477 234.57915816 198.45955515 235.82612223 206.54663086 236.92578125 C212.76686548 237.78495225 218.87689794 238.94102598 225.01953125 240.25 C228.14947303 240.8777867 231.2846763 241.33133185 234.44921875 241.75 C235.39796875 241.87568359 236.34671875 242.00136719 237.32421875 242.13085938 C239.19654176 242.37224345 241.07025249 242.6031545 242.9453125 242.82226562 C251.23083199 243.8875467 251.23083199 243.8875467 254 247 C254.5 250 254.5 250 254 253 C250.42712632 257.0157919 245.21086742 256.91291088 240.1875 257.5 C238.26519241 257.74797132 236.3433131 257.99928523 234.421875 258.25390625 C233.48537109 258.37781738 232.54886719 258.50172852 231.58398438 258.62939453 C228.33510709 259.09536163 225.1443739 259.74117175 221.9375 260.4375 C214.91561192 261.9153892 207.85752542 262.89885297 200.75 263.875 C191.74213521 265.12030779 182.80331688 266.52525993 173.875 268.25 C158.39742512 271.23361452 142.82554266 273.62660857 127.25341797 276.05761719 C114.11481334 278.11905498 101.04727798 280.42215863 88 283 C86.90341064 286.28976808 87.20046862 287.71303767 88 291 C88.66 291 89.32 291 90 291 C94 296.41176471 94 296.41176471 94 299 C94.66 299 95.32 299 96 299 C97.49291992 300.87670898 97.49291992 300.87670898 99.23046875 303.49609375 C100.18856445 304.92405273 100.18856445 304.92405273 101.16601562 306.38085938 C101.83310547 307.38955078 102.50019531 308.39824219 103.1875 309.4375 C107.48993159 315.90613097 111.82014364 322.22617358 116.7434082 328.24243164 C118 330 118 330 118 332 C120.31 332 122.62 332 125 332 C125 331.01 125 330.02 125 329 C125.66 329 126.32 329 127 329 C127.12246094 328.42765625 127.24492187 327.8553125 127.37109375 327.265625 C128.02762868 324.90046809 128.93723512 322.92793203 130.0625 320.75 C130.42472656 320.04359375 130.78695313 319.3371875 131.16015625 318.609375 C131.43730469 318.07828125 131.71445312 317.5471875 132 317 C132.66 317 133.32 317 134 317 C134.103125 316.30390625 134.20625 315.6078125 134.3125 314.890625 C135.11077306 311.53424962 136.42809026 308.81824689 138 305.75 C138.53625 304.69296875 139.0725 303.6359375 139.625 302.546875 C141 300 141 300 142 299 C149.28700816 299.13715163 156.43194243 300.80384518 163.5 302.4375 C164.48742187 302.65470703 165.47484375 302.87191406 166.4921875 303.09570312 C167.43320312 303.31033203 168.37421875 303.52496094 169.34375 303.74609375 C170.61508789 304.03504517 170.61508789 304.03504517 171.91210938 304.32983398 C174 305 174 305 176 307 C176.35960336 313.4112383 174.04751785 319.12561615 171.375 324.8125 C171.01889648 325.59149658 170.66279297 326.37049316 170.29589844 327.1730957 C167.25725775 333.70536431 163.77977599 339.86623693 160 346 C159.1811734 347.41301935 158.3675804 348.82910372 157.5625 350.25 C157.046875 351.1575 156.53125 352.065 156 353 C155.34 353 154.68 353 154 353 C153.7525 353.70125 153.505 354.4025 153.25 355.125 C151.82819762 358.39514548 150.12753712 361.141122 148 364 C147.34 364 146.68 364 146 364 C145.18024799 366.26752627 145.18024799 366.26752627 145 369 C146.39066839 371.47272723 146.39066839 371.47272723 148.4375 373.6875 C152 377.83561644 152 377.83561644 152 380 C152.66 380 153.32 380 154 380 C155.42808918 381.88367591 156.76921391 383.8338427 158.0625 385.8125 C158.77535156 386.89144531 159.48820312 387.97039062 160.22265625 389.08203125 C162 392 162 392 163 395 C163.66 395 164.32 395 165 395 C165.66 396.98 166.32 398.96 167 401 C167.66 401 168.32 401 169 401 C170.32247289 402.76031864 171.55764141 404.58657125 172.75 406.4375 C175.74247786 411.08555213 175.74247786 411.08555213 178.89453125 415.625 C179.44496094 416.388125 179.99539063 417.15125 180.5625 417.9375 C181.05878906 418.60652344 181.55507813 419.27554687 182.06640625 419.96484375 C183.32953391 422.71835635 182.99928046 424.17877564 182 427 C179 429 179 429 176.64453125 428.859375 C173.44858896 427.82081178 171.34810061 426.29839295 168.6875 424.25 C165.30667001 421.69376269 161.95619487 419.29046991 158.3125 417.125 C157.219375 416.42375 156.12625 415.7225 155 415 C155 414.34 155 413.68 155 413 C153.02 412.34 151.04 411.68 149 411 C149 410.34 149 409.68 149 409 C148.45859375 408.7421875 147.9171875 408.484375 147.359375 408.21875 C144.56507559 406.77533706 141.91780654 405.16561466 139.25 403.5 C138.26515625 402.8915625 137.2803125 402.283125 136.265625 401.65625 C135.51796875 401.1096875 134.7703125 400.563125 134 400 C134 399.34 134 398.68 134 398 C132.948125 397.6596875 132.948125 397.6596875 131.875 397.3125 C129.28379509 396.12955863 128.02314339 395.19936948 126 393.3125 C123.2496556 390.66575874 123.2496556 390.66575874 120.125 391.1875 C119.42375 391.455625 118.7225 391.72375 118 392 C118 392.66 118 393.32 118 394 C116.35 394.66 114.7 395.32 113 396 C113 396.66 113 397.32 113 398 C110 400 110 400 107 400 C107 400.66 107 401.32 107 402 C97.20079017 407.75703578 87.26559942 413.11816209 77 418 C75.52080078 418.70576172 75.52080078 418.70576172 74.01171875 419.42578125 C68.82814728 421.71473314 65.52812503 422.44211957 60 421 C57.60993241 416.09570547 57.13890077 410.9690059 56.4375 405.625 C56.31181641 404.70460938 56.18613281 403.78421875 56.05664062 402.8359375 C55.81213615 401.04375811 55.57269312 399.25087926 55.33886719 397.45727539 C55.12668934 395.91868026 54.89136087 394.38290445 54.62207031 392.85327148 C54.34092442 391.24669374 54.15996666 389.62312838 54 388 C57.48289121 383.93662692 62.99855067 381.76080988 68 380 C68.99 380 69.98 380 71 380 C71 379.34 71 378.68 71 378 C72.24735567 377.3490741 73.49801832 376.70448331 74.75 376.0625 C75.44609375 375.70285156 76.1421875 375.34320313 76.859375 374.97265625 C78.90224433 374.04441818 80.81115376 373.46833422 83 373 C83 372.34 83 371.68 83 371 C83.99 371 84.98 371 86 371 C86 368.69 86 366.38 86 364 C85.26910156 363.74476563 84.53820312 363.48953125 83.78515625 363.2265625 C80.84706414 361.93264816 78.87802958 360.44800482 76.4375 358.375 C69.87893814 352.98305827 62.82453977 348.40145521 55.640625 343.890625 C54.76921875 343.26671875 53.8978125 342.6428125 53 342 C53 341.34 53 340.68 53 340 C52.236875 339.71125 51.47375 339.4225 50.6875 339.125 C48 338 48 338 45 336 C45 335.34 45 334.68 45 334 C40.89776415 332.98459888 40.89776415 332.98459888 37 334 C36.29915008 336.73650037 35.74487894 339.41051765 35.25 342.1875 C35.08443604 343.08299561 34.91887207 343.97849121 34.74829102 344.90112305 C32.69350199 356.27985323 30.94966606 367.71517992 29.19433594 379.14331055 C27.84113816 387.91899855 26.3527248 396.6501746 24.68579102 405.37158203 C22.67467505 416.01209664 21.08013864 426.73036201 19.39550781 437.42651367 C19.00124146 439.92961825 18.60615378 442.43259213 18.2109375 444.93554688 C17.95312189 446.57031201 17.69530935 448.20507763 17.4375 449.83984375 C17.31270264 450.62934418 17.18790527 451.4188446 17.05932617 452.23226929 C16.4929149 455.82491226 15.93402545 459.41815303 15.40234375 463.01611328 C15.14130859 464.7735083 15.14130859 464.7735083 14.875 466.56640625 C14.72804688 467.57775635 14.58109375 468.58910645 14.4296875 469.63110352 C14 472 14 472 13 474 C12.74801217 475.53229509 12.53812996 477.07165266 12.3515625 478.61328125 C12.17367187 479.9909668 12.17367187 479.9909668 11.9921875 481.39648438 C11.74896911 483.32800063 11.51190625 485.26030275 11.28125 487.19335938 C10.07544608 496.37157962 10.07544608 496.37157962 7 500 C4 500.625 4 500.625 1 500 C-2.81073725 495.50408093 -2.95302993 489.94406734 -3.625 484.3125 C-3.86426369 482.41238996 -4.10631351 480.51262803 -4.3515625 478.61328125 C-4.50359131 477.35704956 -4.50359131 477.35704956 -4.65869141 476.07543945 C-4.90370311 473.94580535 -4.90370311 473.94580535 -6 472 C-6.45126974 469.08504144 -6.86157673 466.17348182 -7.25 463.25 C-9.57119448 446.42729181 -12.14957447 429.56466738 -15.625 412.9375 C-16.73949031 407.58055761 -17.57079212 402.23012374 -18.3125 396.8125 C-19.69661319 386.71960808 -21.32879338 376.67348222 -23 366.625 C-23.12565338 365.86385895 -23.25130676 365.1027179 -23.38076782 364.31851196 C-25.05867387 354.16859604 -26.9151848 344.07475855 -29 334 C-32.09720845 333.12159004 -33.90645403 333.00564594 -37 334 C-37 334.66 -37 335.32 -37 336 C-42.41176471 340 -42.41176471 340 -45 340 C-45 340.66 -45 341.32 -45 342 C-46.87670898 343.49291992 -46.87670898 343.49291992 -49.49609375 345.23046875 C-50.92405273 346.18856445 -50.92405273 346.18856445 -52.38085938 347.16601562 C-53.38955078 347.83310547 -54.39824219 348.50019531 -55.4375 349.1875 C-61.90613097 353.48993159 -68.22617358 357.82014364 -74.24243164 362.7434082 C-76 364 -76 364 -78 364 C-78 366.31 -78 368.62 -78 371 C-77.01 371 -76.02 371 -75 371 C-75 371.66 -75 372.32 -75 373 C-74.42765625 373.12246094 -73.8553125 373.24492187 -73.265625 373.37109375 C-70.90046809 374.02762868 -68.92793203 374.93723512 -66.75 376.0625 C-66.04359375 376.42472656 -65.3371875 376.78695313 -64.609375 377.16015625 C-64.07828125 377.43730469 -63.5471875 377.71445312 -63 378 C-63 378.66 -63 379.32 -63 380 C-62.28199219 380.11472656 -61.56398437 380.22945313 -60.82421875 380.34765625 C-57.86094573 381.03211904 -55.5173791 382.05846179 -52.8125 383.4375 C-51.52279297 384.08525391 -51.52279297 384.08525391 -50.20703125 384.74609375 C-48 386 -48 386 -46 388 C-46.106642 390.44362517 -46.33258777 392.71477941 -46.6875 395.125 C-46.78490479 395.8277002 -46.88230957 396.53040039 -46.98266602 397.25439453 C-47.30441741 399.50590426 -47.64883074 401.75290053 -48 404 C-48.11537109 404.75474609 -48.23074219 405.50949219 -48.34960938 406.28710938 C-48.69370065 408.48663207 -49.06041499 410.68091365 -49.4375 412.875 C-49.54731201 413.55836426 -49.65712402 414.24172852 -49.77026367 414.94580078 C-50.12109375 416.8671875 -50.12109375 416.8671875 -51 420 C-54.40078745 422.26719163 -55.84586048 422.13266032 -59.77929688 421.51660156 C-63.65182195 420.61573711 -67.15481789 419.04551225 -70.75 417.375 C-71.5335083 417.01889648 -72.3170166 416.66279297 -73.12426758 416.29589844 C-79.68050085 413.26363214 -85.84972692 409.78994987 -92 406 C-93.41301935 405.1811734 -94.82910372 404.3675804 -96.25 403.5625 C-97.61125 402.7890625 -97.61125 402.7890625 -99 402 C-99 401.34 -99 400.68 -99 400 C-100.98 399.34 -102.96 398.68 -105 398 C-105 397.34 -105 396.68 -105 396 C-106.65 395.34 -108.3 394.68 -110 394 C-110 393.34 -110 392.68 -110 392 C-112.26752627 391.18024799 -112.26752627 391.18024799 -115 391 C-117.47272723 392.39066839 -117.47272723 392.39066839 -119.6875 394.4375 C-123.83561644 398 -123.83561644 398 -126 398 C-126 398.66 -126 399.32 -126 400 C-127.88367591 401.42808918 -129.8338427 402.76921391 -131.8125 404.0625 C-132.89144531 404.77535156 -133.97039062 405.48820312 -135.08203125 406.22265625 C-138 408 -138 408 -141 409 C-141 409.66 -141 410.32 -141 411 C-142.98 411.66 -144.96 412.32 -147 413 C-147 413.66 -147 414.32 -147 415 C-148.76031864 416.32247289 -150.58657125 417.55764141 -152.4375 418.75 C-157.08555213 421.74247786 -157.08555213 421.74247786 -161.625 424.89453125 C-162.388125 425.44496094 -163.15125 425.99539063 -163.9375 426.5625 C-164.60652344 427.05878906 -165.27554688 427.55507813 -165.96484375 428.06640625 C-168.71835635 429.32953391 -170.17877564 428.99928046 -173 428 C-175 425 -175 425 -174.8125 422 C-173.9417766 418.78502129 -173.29942106 418.20748633 -171 416 C-170.16477933 414.83069106 -169.36216189 413.6375575 -168.58984375 412.42578125 C-168.15736328 411.75869141 -167.72488281 411.09160156 -167.27929688 410.40429688 C-166.37829968 408.99968552 -165.47989575 407.5934076 -164.58398438 406.18554688 C-163.43868201 404.4239383 -162.22446621 402.70753178 -161 401 C-160.34 401 -159.68 401 -159 401 C-158.34 399.02 -157.68 397.04 -157 395 C-156.34 395 -155.68 395 -155 395 C-154.73445313 394.43410156 -154.46890625 393.86820312 -154.1953125 393.28515625 C-152.91963761 390.84636602 -151.46587784 388.68322756 -149.875 386.4375 C-149.26269531 385.56738281 -148.65039062 384.69726562 -148.01953125 383.80078125 C-146.62342485 381.86459501 -145.20237281 379.94624122 -143.76171875 378.04296875 C-143.03597656 377.08003906 -142.31023437 376.11710937 -141.5625 375.125 C-140.88316406 374.24070312 -140.20382813 373.35640625 -139.50390625 372.4453125 C-137.65075357 369.91059507 -137.65075357 369.91059507 -138 366 C-138 365.34 -138 364.68 -138 364 C-138.66 364 -139.32 364 -140 364 C-141.5078125 362.1015625 -141.5078125 362.1015625 -143.125 359.625 C-143.66382813 358.81289063 -144.20265625 358.00078125 -144.7578125 357.1640625 C-146 355 -146 355 -146 353 C-146.66 353 -147.32 353 -148 353 C-169.91084246 315.704949 -169.91084246 315.704949 -168 307 C-163.73677189 303.67943787 -158.98977163 302.88929782 -153.8125 301.875 C-152.96840576 301.70323242 -152.12431152 301.53146484 -151.25463867 301.35449219 C-145.51406904 300.2159947 -139.84511422 299.38328618 -134 299 C-130.23897237 304.2385742 -126 310.38642421 -126 317 C-125.34 317 -124.68 317 -124 317 C-123.3490741 318.24735567 -122.70448331 319.49801832 -122.0625 320.75 C-121.70285156 321.44609375 -121.34320313 322.1421875 -120.97265625 322.859375 C-120.04441818 324.90224433 -119.46833422 326.81115376 -119 329 C-118.34 329 -117.68 329 -117 329 C-117 329.99 -117 330.98 -117 332 C-114.69 332 -112.38 332 -110 332 C-109.74476563 331.26910156 -109.48953125 330.53820312 -109.2265625 329.78515625 C-107.93264816 326.84706414 -106.44800482 324.87802958 -104.375 322.4375 C-98.98305827 315.87893814 -94.40145521 308.82453977 -89.890625 301.640625 C-89.26671875 300.76921875 -88.6428125 299.8978125 -88 299 C-87.34 299 -86.68 299 -86 299 C-85.71125 298.236875 -85.4225 297.47375 -85.125 296.6875 C-84 294 -84 294 -82 291 C-81.34 291 -80.68 291 -80 291 C-78.98459888 286.89776415 -78.98459888 286.89776415 -80 283 C-81.98484483 282.35814122 -81.98484483 282.35814122 -84.45703125 281.95703125 C-85.44453369 281.77406494 -86.43203613 281.59109863 -87.44946289 281.40258789 C-88.55926514 281.20785889 -89.66906738 281.01312988 -90.8125 280.8125 C-91.9873999 280.60036865 -93.1622998 280.3882373 -94.37280273 280.16967773 C-107.65182539 277.81308567 -120.97997648 275.7519171 -134.30297852 273.66186523 C-146.49860225 271.74422529 -158.66128005 269.69211986 -170.81100464 267.50378418 C-181.90927549 265.50755536 -193.0287729 263.70797087 -204.17453003 261.99807739 C-212.76142735 260.67987614 -221.31624629 259.29736507 -229.83984375 257.6171875 C-233.86569704 256.83092691 -237.90984451 256.16988871 -241.9609375 255.52734375 C-244 255 -244 255 -246 253 C-246.4375 250.0625 -246.4375 250.0625 -246 247 C-241.52862268 243.17678452 -235.9301363 243.04530779 -230.3125 242.375 C-228.41238996 242.13573631 -226.51262803 241.89368649 -224.61328125 241.6484375 C-223.35704956 241.49640869 -223.35704956 241.49640869 -222.07543945 241.34130859 C-219.94580535 241.09629689 -219.94580535 241.09629689 -218 240 C-215.08504144 239.54873026 -212.17348182 239.13842327 -209.25 238.75 C-191.29491201 236.27255994 -173.36258296 233.39934013 -155.62109375 229.6796875 C-150.02315478 228.62894167 -144.38437561 227.89505348 -138.74243164 227.12231445 C-133.74308021 226.42656799 -128.81502523 225.61296513 -123.875 224.5625 C-115.51970849 222.79860512 -107.08217212 221.63493764 -98.62841797 220.44555664 C-89.22800726 219.14488998 -89.22800726 219.14488998 -80 217 C-78.90341064 213.71023192 -79.20046862 212.28696233 -80 209 C-80.66 209 -81.32 209 -82 209 C-86 203.58823529 -86 203.58823529 -86 201 C-86.66 201 -87.32 201 -88 201 C-89.49291992 199.12329102 -89.49291992 199.12329102 -91.23046875 196.50390625 C-92.18856445 195.07594727 -92.18856445 195.07594727 -93.16601562 193.61914062 C-93.83310547 192.61044922 -94.50019531 191.60175781 -95.1875 190.5625 C-99.48993159 184.09386903 -103.82014364 177.77382642 -108.7434082 171.75756836 C-110 170 -110 170 -110 168 C-112.31 168 -114.62 168 -117 168 C-117 168.99 -117 169.98 -117 171 C-117.66 171 -118.32 171 -119 171 C-119.12246094 171.57234375 -119.24492188 172.1446875 -119.37109375 172.734375 C-120.02762868 175.09953191 -120.93723512 177.07206797 -122.0625 179.25 C-122.42472656 179.95640625 -122.78695312 180.6628125 -123.16015625 181.390625 C-123.57587891 182.18726563 -123.57587891 182.18726563 -124 183 C-124.66 183 -125.32 183 -126 183 C-126.13664062 183.58007812 -126.27328125 184.16015625 -126.4140625 184.7578125 C-128.1054812 191.23030807 -130.32694753 199.21796502 -136 203 C-138.09375 203.04467773 -138.09375 203.04467773 -140.5 202.74609375 C-141.386875 202.6363623 -142.27375 202.52663086 -143.1875 202.41357422 C-147.81342207 201.7333388 -152.40737766 200.93868114 -157 200.0625 C-157.93972656 199.89298828 -158.87945312 199.72347656 -159.84765625 199.54882812 C-160.74355469 199.37931641 -161.63945312 199.20980469 -162.5625 199.03515625 C-163.36816406 198.8844165 -164.17382812 198.73367676 -165.00390625 198.57836914 C-167 198 -167 198 -169 196 C-169.80616181 189.55910304 -167.60534562 184.74954657 -165 178.9375 C-164.59499268 178.01372559 -164.18998535 177.08995117 -163.77270508 176.13818359 C-160.33203025 168.43369958 -156.37262563 161.20968252 -152 154 C-150.65461934 151.67333123 -149.326834 149.33733671 -148 147 C-147.34 147 -146.68 147 -146 147 C-145.88527344 146.41734375 -145.77054687 145.8346875 -145.65234375 145.234375 C-144.95175938 142.83476865 -144.01807405 141.27139067 -142.5625 139.25 C-142.13066406 138.63640625 -141.69882813 138.0228125 -141.25390625 137.390625 C-140.84011719 136.93171875 -140.42632812 136.4728125 -140 136 C-139.34 136 -138.68 136 -138 136 C-137.2434881 133.69084426 -137.2434881 133.69084426 -137 131 C-138.01133971 128.96683827 -138.01133971 128.96683827 -139.75 127.125 C-143.29898177 122.87054112 -146.65268848 118.52197712 -149.9375 114.0625 C-150.43411133 113.39943848 -150.93072266 112.73637695 -151.44238281 112.05322266 C-155 107.23390685 -155 107.23390685 -155 105 C-155.66 105 -156.32 105 -157 105 C-157.66 103.02 -158.32 101.04 -159 99 C-159.66 99 -160.32 99 -161 99 C-162.38490744 97.1563971 -163.68388849 95.24777736 -164.9375 93.3125 C-165.97197266 91.72888672 -165.97197266 91.72888672 -167.02734375 90.11328125 C-168.26748879 88.15606225 -169.47366939 86.17647409 -170.62890625 84.16796875 C-171.81680982 81.8762212 -171.81680982 81.8762212 -174 81 C-174.85056945 77.44307323 -175.16909807 75.50729422 -174 72 C-168.375 70.875 -168.375 70.875 -165 72 C-163.98200158 72.98167165 -162.98313855 73.98341818 -162 75 C-160.83069106 75.83522067 -159.6375575 76.63783811 -158.42578125 77.41015625 C-157.75869141 77.84263672 -157.09160156 78.27511719 -156.40429688 78.72070312 C-154.99968552 79.62170032 -153.5934076 80.52010425 -152.18554688 81.41601562 C-150.4239383 82.56131799 -148.70753178 83.77553379 -147 85 C-147 85.66 -147 86.32 -147 87 C-145.02 87.66 -143.04 88.32 -141 89 C-141 89.66 -141 90.32 -141 91 C-140.28457031 91.2578125 -139.56914062 91.515625 -138.83203125 91.78125 C-135.82839889 93.07384765 -133.36494628 94.6277709 -130.6875 96.5 C-129.80449219 97.1084375 -128.92148438 97.716875 -128.01171875 98.34375 C-127.34785156 98.8903125 -126.68398437 99.436875 -126 100 C-126 100.66 -126 101.32 -126 102 C-124.948125 102.37125 -124.948125 102.37125 -123.875 102.75 C-120.60485452 104.17180238 -117.858878 105.87246288 -115 108 C-115 108.66 -115 109.32 -115 110 C-112.525 109.01 -112.525 109.01 -110 108 C-110 107.34 -110 106.68 -110 106 C-107.525 105.01 -107.525 105.01 -105 104 C-105 103.34 -105 102.68 -105 102 C-102 100 -102 100 -99 100 C-99 99.34 -99 98.68 -99 98 C-65.14420063 78.10971787 -65.14420063 78.10971787 -55.5 77.9375 C-53 79 -53 79 -51.9453125 80.9609375 C-50.64207161 85.15069541 -50.00679714 89.35195332 -49.375 93.6875 C-49.17390625 94.95883789 -49.17390625 94.95883789 -48.96875 96.25585938 C-48.0816842 102.20734675 -47.84073352 107.98728807 -48 114 C-49.93370231 115.00732399 -51.87210306 116.00563288 -53.8125 117 C-54.89144531 117.556875 -55.97039062 118.11375 -57.08203125 118.6875 C-60 120 -60 120 -63 120 C-63 120.66 -63 121.32 -63 122 C-64.24735567 122.6509259 -65.49801832 123.29551669 -66.75 123.9375 C-67.44609375 124.29714844 -68.1421875 124.65679687 -68.859375 125.02734375 C-70.90224433 125.95558182 -72.81115376 126.53166578 -75 127 C-75 127.66 -75 128.32 -75 129 C-75.99 129 -76.98 129 -78 129 C-78 129.66 -78 130.32 -78 131 C-79.5 132.625 -79.5 132.625 -81 134 C-80.26910156 134.2578125 -79.53820312 134.515625 -78.78515625 134.78125 C-75.89845264 136.04443587 -73.86570188 137.50676298 -71.4375 139.5 C-68.71852482 141.72418767 -66.20492005 143.54652152 -63 145 C-63 145.66 -63 146.32 -63 147 C-62.31550781 147.2371875 -61.63101563 147.474375 -60.92578125 147.71875 C-57.39465972 149.26508894 -54.33445017 151.30380066 -51.1875 153.5 C-50.59001953 153.90347656 -49.99253906 154.30695313 -49.37695312 154.72265625 C-47.87856389 155.76039782 -46.43384386 156.87475797 -45 158 C-45 158.66 -45 159.32 -45 160 C-44.01 160 -43.02 160 -42 160 C-42 160.66 -42 161.32 -42 162 C-40.35 162.66 -38.7 163.32 -37 164 C-37 164.66 -37 165.32 -37 166 C-34.69 166.33 -32.38 166.66 -30 167 C-26.59444976 158.26885635 -25.44147536 149.21237596 -24.0625 140 C-23.80056951 138.29137397 -23.53778576 136.58287854 -23.27416992 134.87451172 C-22.75157703 131.48294118 -22.23249052 128.09086852 -21.71679688 124.69824219 C-20.77381161 118.50313559 -19.7986747 112.31338189 -18.8125 106.125 C-18.67013916 105.21492188 -18.52777832 104.30484375 -18.38110352 103.3671875 C-17.53808839 98.0557554 -16.58458521 92.77445425 -15.57421875 87.4921875 C-13.8341692 78.36141838 -12.41379265 69.18597047 -11 60 C-9.58633195 50.81483912 -8.16396509 41.64295071 -6.41015625 32.515625 C-5.04303123 25.37985586 -4.00296136 18.24137883 -3.09570312 11.03515625 C-2.98033203 10.17277344 -2.86496094 9.31039063 -2.74609375 8.421875 C-2.64997803 7.66487305 -2.5538623 6.90787109 -2.45483398 6.12792969 C-1.96449965 3.83391246 -1.13160932 2.04588011 0 0 Z " fill="#060606" transform="translate(246,0)"/>
<path d="M0 0 C0.66 0.33 1.32 0.66 2 1 C0.7934375 2.36125 0.7934375 2.36125 -0.4375 3.75 C-2.41142671 6.10309908 -3.63877467 7.86938046 -4 11 C-4.8125 7.75 -4.8125 7.75 -5 4 C-2.5625 1.5625 -2.5625 1.5625 0 0 Z " fill="#707070" transform="translate(305,384)"/>
<path d="M0 0 C-0.66 0 -1.32 0 -2 0 C-2.66 1.32 -3.32 2.64 -4 4 C-4.66 4 -5.32 4 -6 4 C-6.33 4.66 -6.66 5.32 -7 6 C-6.67 4.02 -6.34 2.04 -6 0 C-3 -1 -3 -1 0 0 Z " fill="#727272" transform="translate(78,72)"/>
</svg>
